<svg xmlns="http://www.w3.org/2000/svg" xmlns:xlink="http://www.w3.org/1999/xlink" viewBox="0 0 79.1 79.57"><defs><style>.cls-1{fill:url(#무제_그라디언트_10);}.cls-2{fill:#fff;}</style><linearGradient id="무제_그라디언트_10" x1="39.55" x2="39.55" y2="79.1" gradientUnits="userSpaceOnUse"><stop offset="0" stop-color="#4aa0d9"/><stop offset="0.09" stop-color="#4493d0"/><stop offset="0.31" stop-color="#3978bd"/><stop offset="0.53" stop-color="#3165b0"/><stop offset="0.76" stop-color="#2c5aa9"/><stop offset="1" stop-color="#2a56a6"/></linearGradient></defs><g id="레이어_2" data-name="레이어 2"><g id="레이어_1-2" data-name="레이어 1"><path class="cls-1" d="M61.35,0H17.74C7.13,0,0,7.2,0,17V62.11c0,9.79,7.13,17,17.74,17H61.35c10.62,0,17.75-7.2,17.75-17V17C79.1,7.2,72,0,61.35,0Z"/><path class="cls-2" d="M54.54,79.57V49H64.79l1.54-11.91H54.54v-7.6c0-3.45,1-5.8,5.9-5.8h6.31V13.05a85.75,85.75,0,0,0-9.19-.47c-9.09,0-15.32,5.55-15.32,15.75v8.78H32V49H42.24V79.57Z"/></g></g></svg>