<svg xmlns="http://www.w3.org/2000/svg" viewBox="0 0 79.43 78.83"><defs><style>.cls-1{fill:#d4191f;}.cls-2{fill:#fff;}.cls-3{fill:#d3191a;}</style></defs><g id="레이어_2" data-name="레이어 2"><g id="레이어_1-2" data-name="레이어 1"><path class="cls-1" d="M79.43,64.39A14.43,14.43,0,0,1,65,78.83H14.44A14.44,14.44,0,0,1,0,64.39V14.44A14.45,14.45,0,0,1,14.44,0H65A14.44,14.44,0,0,1,79.43,14.44Z"/><path class="cls-2" d="M56.3,23.86c-1.72-.26-10-.59-16.58-.59s-14.86.33-16.58.59c-3,.48-4.63,1.82-5.5,5.29a88,88,0,0,0-.69,10v.54a88,88,0,0,0,.69,10c.87,3.48,2.5,4.81,5.5,5.29,1.72.26,10,.58,16.59.58h0c6.59,0,14.87-.33,16.6-.59,3-.48,4.62-1.81,5.49-5.29a88,88,0,0,0,.69-10v-.54a88,88,0,0,0-.69-10c-.87-3.48-2.5-4.81-5.49-5.29"/><polygon class="cls-3" points="34.26 33.58 45.17 39.28 34.26 45.25 34.26 33.58"/></g></g></svg>