<svg xmlns="http://www.w3.org/2000/svg" viewBox="0 0 79.1 79.1"><defs><style>.cls-1{fill:#6b6b6b;}.cls-2{fill:#fff;}.cls-3{fill:#424242;}</style></defs><g id="레이어_2" data-name="레이어 2"><g id="레이어_1-2" data-name="레이어 1"><path class="cls-1" d="M61.35,0H17.74C7.13,0,0,7.2,0,17V62.11c0,9.79,7.13,17,17.74,17H61.35c10.62,0,17.75-7.2,17.75-17V17C79.1,7.2,72,0,61.35,0Z"/><path class="cls-2" d="M40.25,11.18c-17,0-30.71,10.86-30.71,24.26,0,8.62,5.69,16.17,14.25,20.49l-2.9,10.8a.89.89,0,0,0,.22.92.88.88,0,0,0,.63.26.92.92,0,0,0,.53-.2L34.72,59.3a38.7,38.7,0,0,0,5.53.41c17,0,30.72-10.86,30.72-24.27S57.21,11.18,40.25,11.18"/><path class="cls-3" d="M20.31,31.6H17a2.2,2.2,0,0,1-1.19-.32,1.32,1.32,0,0,1-.61-.89c0-.11,0-.23-.05-.35a1.34,1.34,0,0,1,.53-1.13A2.06,2.06,0,0,1,17,28.49H27.18a2.18,2.18,0,0,1,1.19.32,1.33,1.33,0,0,1,.62.9A3.25,3.25,0,0,1,29,30a1.41,1.41,0,0,1-.51,1.16,2.11,2.11,0,0,1-1.31.4H23.85V43.12a1.84,1.84,0,0,1-.48,1.33,1.69,1.69,0,0,1-1.3.5,1.8,1.8,0,0,1-1.13-.36,1.68,1.68,0,0,1-.59-1,1.83,1.83,0,0,1,0-.47Z"/><path class="cls-3" d="M29.87,29.33a1.57,1.57,0,0,1,.64-.86,2,2,0,0,1,1.08-.26h.85a2.19,2.19,0,0,1,1.16.28,1.82,1.82,0,0,1,.73,1.07L38.6,41.93a7.24,7.24,0,0,1,.29,1q0,.27.06.42a1.54,1.54,0,0,1-.5,1.14,1.58,1.58,0,0,1-1.17.47,1.51,1.51,0,0,1-1.59-1l-.92-2.69H29.08l-.92,2.69a1.48,1.48,0,0,1-1.58,1,1.64,1.64,0,0,1-1-.32,1.46,1.46,0,0,1-.54-.91,2.25,2.25,0,0,1,0-.38,2.06,2.06,0,0,1,.09-.65c.07-.25.15-.51.24-.76ZM32,32.2h0l-2.08,6.49H34Z"/><path class="cls-3" d="M39.5,30A1.86,1.86,0,0,1,40,28.71a1.93,1.93,0,0,1,2.43-.13,1.61,1.61,0,0,1,.59,1A1.43,1.43,0,0,1,43,30V41.57h5.91a2.13,2.13,0,0,1,1.19.31,1.36,1.36,0,0,1,.61.9,3.07,3.07,0,0,1,0,.34,1.36,1.36,0,0,1-.53,1.14,2,2,0,0,1-1.31.4H41.57a2.32,2.32,0,0,1-1.33-.33,1.65,1.65,0,0,1-.67-1.1,4.79,4.79,0,0,1-.08-.72Z"/><path class="cls-3" d="M51.14,30a1.9,1.9,0,0,1,.48-1.33,1.72,1.72,0,0,1,1.3-.5,1.75,1.75,0,0,1,1.13.37,1.61,1.61,0,0,1,.59,1,1.44,1.44,0,0,1,0,.46V35.4L60.24,29a4,4,0,0,1,.68-.61,1.3,1.3,0,0,1,.73-.19,1.86,1.86,0,0,1,1.06.32,1.36,1.36,0,0,1,.59.87.87.87,0,0,0,0,.13.74.74,0,0,0,0,.15,1.37,1.37,0,0,1-.16.68,3.58,3.58,0,0,1-.42.59l-3.63,4,4.3,6.81.12.2a3.24,3.24,0,0,1,.51,1,1.1,1.1,0,0,1,0,.11v.11a1.64,1.64,0,0,1-.53,1.36,2.09,2.09,0,0,1-1.29.41,1.77,1.77,0,0,1-.88-.19,2.32,2.32,0,0,1-.69-.77l-4.08-6.56-1.94,2,0,3.66a1.89,1.89,0,0,1-.49,1.33,1.68,1.68,0,0,1-1.29.5,1.81,1.81,0,0,1-1.14-.36,1.63,1.63,0,0,1-.59-1,1.83,1.83,0,0,1,0-.47Z"/></g></g></svg>