<svg xmlns="http://www.w3.org/2000/svg" viewBox="0 0 79.1 79.57"><defs><style>.cls-1{fill:#6b6b6b;}.cls-2{fill:#fff;}</style></defs><g id="레이어_2" data-name="레이어 2"><g id="레이어_1-2" data-name="레이어 1"><path class="cls-1" d="M61.35,0H17.74C7.13,0,0,7.2,0,17V62.11c0,9.79,7.13,17,17.74,17H61.35c10.62,0,17.75-7.2,17.75-17V17C79.1,7.2,72,0,61.35,0Z"/><path class="cls-2" d="M54.54,79.57V49H64.79l1.54-11.91H54.54v-7.6c0-3.45,1-5.8,5.9-5.8h6.31V13.05a85.75,85.75,0,0,0-9.19-.47c-9.09,0-15.32,5.55-15.32,15.75v8.78H32V49H42.24V79.57Z"/></g></g></svg>