<svg xmlns="http://www.w3.org/2000/svg" viewBox="0 0 79.1 79.1"><defs><style>.cls-1{fill:#6b6b6b;}.cls-2{fill:#fff;}</style></defs><g id="레이어_2" data-name="레이어 2"><g id="레이어_1-2" data-name="레이어 1"><path class="cls-1" d="M61.35,0H17.74C7.13,0,0,7.2,0,17V62.11c0,9.79,7.13,17,17.74,17H61.35c10.62,0,17.75-7.2,17.75-17V17C79.1,7.2,72,0,61.35,0Z"/><path class="cls-2" d="M50.17,17.59H28.93a2.57,2.57,0,0,0-2.58,2.57V41.22a2.57,2.57,0,0,0,2.58,2.57h9.79a15.82,15.82,0,0,1-2.63,7.64,30.76,30.76,0,0,1-5.37,5.77,1.35,1.35,0,0,0-.5,1,1.47,1.47,0,0,0,.36.87l6.83,7.66a1.59,1.59,0,0,0,.61.41,1.08,1.08,0,0,0,.9-.1A34.33,34.33,0,0,0,52.75,40.41V20.16a2.58,2.58,0,0,0-2.58-2.57Z"/></g></g></svg>