<svg xmlns="http://www.w3.org/2000/svg" viewBox="0 0 79.1 79.1"><defs><style>.cls-1{fill:#6b6b6b;}.cls-2{fill:#fff;}</style></defs><g id="레이어_2" data-name="레이어 2"><g id="레이어_1-2" data-name="레이어 1"><path class="cls-1" d="M61.35,0H17.74C7.13,0,0,7.2,0,17V62.11c0,9.79,7.13,17,17.74,17H61.35c10.62,0,17.75-7.2,17.75-17V17C79.1,7.2,72,0,61.35,0Z"/><path class="cls-2" d="M39.55,22.87a22.43,22.43,0,0,0-5.6.7V19.26a1.54,1.54,0,0,0,0-.3,8.55,8.55,0,0,0-17.08,0c0,.1,0,16.19,0,16.19V45.84a22.75,22.75,0,1,0,22.75-23Zm0,42A19.26,19.26,0,0,1,20.29,45.62V19.42a5.08,5.08,0,1,1,10.16,0v26a9.31,9.31,0,0,0,9.11,9.35A9.12,9.12,0,1,0,34,38.43v-3.9a12.43,12.43,0,1,1-6.83,11.09V19.26a1.75,1.75,0,0,0-3.49,0V45.62c0,.4,0,.8,0,1.19A15.92,15.92,0,1,0,39.55,29.7a15.77,15.77,0,0,0-5.6,1V27.2a19.26,19.26,0,1,1,5.6,37.68ZM34,45.62a5.6,5.6,0,1,1,5.6,5.6A5.6,5.6,0,0,1,34,45.62Z"/></g></g></svg>