<svg xmlns="http://www.w3.org/2000/svg" viewBox="0 0 78.3 77.71"><defs><style>.cls-1{fill:#6b6b6b;}.cls-2{fill:#fff;}.cls-3{fill:#424242;}</style></defs><g id="레이어_2" data-name="레이어 2"><g id="레이어_1-2" data-name="레이어 1"><path class="cls-1" d="M78.3,63.47A14.23,14.23,0,0,1,64.06,77.71H14.23A14.24,14.24,0,0,1,0,63.47V14.23A14.24,14.24,0,0,1,14.23,0H64.06A14.23,14.23,0,0,1,78.3,14.23Z"/><path class="cls-2" d="M61.29,6.37H15.85A10.52,10.52,0,0,0,5.36,16.9v25A10.51,10.51,0,0,0,15.85,52.41H31.5l5.34,8.69a2,2,0,0,0,.17.25,1.8,1.8,0,0,0,1.56.9,1.78,1.78,0,0,0,1.54-.89.87.87,0,0,0,.18-.26l5.34-8.69H61.29A10.52,10.52,0,0,0,71.78,41.88v-25A10.52,10.52,0,0,0,61.29,6.37"/><path class="cls-3" d="M20.11,24.68a5.42,5.42,0,0,0-3.46,1.6V19.83H12.59V36.77h4.1V35.44a3.9,3.9,0,0,0,3.42,1.76,6,6,0,0,0,5.73-6.34s-.21-6.18-5.73-6.18m-.9,8.93A2.61,2.61,0,1,1,21.82,31a2.61,2.61,0,0,1-2.61,2.61"/><path class="cls-3" d="M27.15,19.44v3.93S29,23.29,29,26.75v10h3.92v-11s.17-6.38-5.77-6.38"/><path class="cls-3" d="M42.5,24.73s-6.72,0-6.72,6.27c0,0-.21,6.2,6.72,6.2,0,0,6.88,0,6.88-6.2,0,0,.22-6.27-6.88-6.27m0,8.88A2.61,2.61,0,1,1,45.12,31a2.61,2.61,0,0,1-2.61,2.61"/><path class="cls-3" d="M60.6,25.13v1.15a4.45,4.45,0,0,0-3.42-1.55s-5.75-.24-5.75,6.23c0,0-.06,6,5.59,6a4.69,4.69,0,0,0,3.58-1.55v1s.28,3-2.59,3H57V43h1.59a5.91,5.91,0,0,0,5.94-6.35V25.13Zm-2.43,8.48A2.61,2.61,0,1,1,60.78,31a2.61,2.61,0,0,1-2.61,2.61"/></g></g></svg>