<svg xmlns="http://www.w3.org/2000/svg" viewBox="0 0 79.37 78.78"><defs><style>.cls-1{fill:#6b6b6b;}.cls-2{fill:#fff;}</style></defs><g id="레이어_2" data-name="레이어 2"><g id="레이어_1-2" data-name="레이어 1"><path class="cls-1" d="M79.37,64.35A14.43,14.43,0,0,1,64.94,78.78H14.43A14.43,14.43,0,0,1,0,64.35V14.43A14.44,14.44,0,0,1,14.43,0H64.94A14.44,14.44,0,0,1,79.37,14.43Z"/><path class="cls-2" d="M65.75,25.23a21.55,21.55,0,0,1-6.15,1.69A10.73,10.73,0,0,0,64.3,21a21.7,21.7,0,0,1-6.79,2.6A10.69,10.69,0,0,0,39,30.91a10.86,10.86,0,0,0,.27,2.44,30.41,30.41,0,0,1-22-11.17,10.69,10.69,0,0,0,3.31,14.27,10.59,10.59,0,0,1-4.84-1.34v.14A10.72,10.72,0,0,0,24.3,45.74a11,11,0,0,1-2.82.37,11.16,11.16,0,0,1-2-.19,10.7,10.7,0,0,0,10,7.42,21.49,21.49,0,0,1-13.29,4.58,23.92,23.92,0,0,1-2.55-.14A30.33,30.33,0,0,0,30,62.58c19.67,0,30.42-16.3,30.42-30.43,0-.46,0-.92,0-1.38a21.85,21.85,0,0,0,5.35-5.54"/></g></g></svg>