<svg xmlns="http://www.w3.org/2000/svg" viewBox="0 0 79.1 79.1"><defs><style>.cls-1{fill:#6b6b6b;}.cls-2{fill:#fff;}</style></defs><g id="레이어_2" data-name="레이어 2"><g id="레이어_1-2" data-name="레이어 1"><path class="cls-1" d="M61.35,0H17.74C7.13,0,0,7.2,0,17V62.11c0,9.79,7.13,17,17.74,17H61.35c10.62,0,17.75-7.2,17.75-17V17C79.1,7.2,72,0,61.35,0Z"/><path class="cls-2" d="M51.78,10.62H27.32a16.69,16.69,0,0,0-16.7,16.7V51.78a16.69,16.69,0,0,0,16.7,16.7H51.78a16.69,16.69,0,0,0,16.7-16.7V27.32a16.69,16.69,0,0,0-16.7-16.7M63.15,52.21A11.09,11.09,0,0,1,52.06,63.3H27A11.1,11.1,0,0,1,15.94,52.21v-25A11.09,11.09,0,0,1,27,16.09h25A11.08,11.08,0,0,1,63.15,27.18Z"/><path class="cls-2" d="M39.55,24.68a15,15,0,1,0,15,15,15,15,0,0,0-15-15m0,24.75a9.74,9.74,0,1,1,9.73-9.74,9.74,9.74,0,0,1-9.73,9.74"/><path class="cls-2" d="M55.06,20.61a3.5,3.5,0,1,0,3.5,3.5,3.5,3.5,0,0,0-3.5-3.5"/></g></g></svg>